<mxfile host="app.diagrams.net" modified="2023-07-09T05:23:21.608Z" agent="Mozilla/5.0 (Windows NT 10.0; Win64; x64) AppleWebKit/537.36 (KHTML, like Gecko) Chrome/115.0.0.0 Safari/537.36 OPR/101.0.0.0 (Edition developer)" version="21.6.1" etag="F-xWXKLDxR7_nZTwKMoS" type="github">
  <diagram name="Страница 1" id="H4ycz1TwJoy2yzk5hrgO">
    <mxGraphModel>
      <root>
        <mxCell id="0" />
        <mxCell id="1" parent="0" />
      </root>
    </mxGraphModel>
  </diagram>
</mxfile>
